<mxfile host="app.diagrams.net" modified="2022-05-17T04:14:28.733Z" agent="5.0 (Windows NT 10.0; Win64; x64) AppleWebKit/537.36 (KHTML, like Gecko) Chrome/101.0.4951.54 Safari/537.36" etag="TP88ExQnmw_uH7J-f2zV" version="18.0.5" type="github">
  <diagram id="R2lEEEUBdFMjLlhIrx00" name="Page-1">
    <mxGraphModel dx="1038" dy="579" grid="1" gridSize="10" guides="1" tooltips="1" connect="1" arrows="1" fold="1" page="1" pageScale="1" pageWidth="850" pageHeight="1100" math="0" shadow="0" extFonts="Permanent Marker^https://fonts.googleapis.com/css?family=Permanent+Marker">
      <root>
        <mxCell id="0" />
        <mxCell id="1" parent="0" />
        <mxCell id="xV1c-Uvib_8-AJtbmz_n-29" value="clinic8314" style="rounded=1;arcSize=10;whiteSpace=wrap;html=1;align=center;" vertex="1" parent="1">
          <mxGeometry x="80" y="280" width="140" height="40" as="geometry" />
        </mxCell>
        <mxCell id="xV1c-Uvib_8-AJtbmz_n-30" value="staff8314" style="rounded=1;arcSize=10;whiteSpace=wrap;html=1;align=center;" vertex="1" parent="1">
          <mxGeometry x="320" y="280" width="140" height="40" as="geometry" />
        </mxCell>
        <mxCell id="xV1c-Uvib_8-AJtbmz_n-31" value="category8314" style="rounded=1;arcSize=10;whiteSpace=wrap;html=1;align=center;" vertex="1" parent="1">
          <mxGeometry x="600" y="280" width="100" height="40" as="geometry" />
        </mxCell>
        <mxCell id="xV1c-Uvib_8-AJtbmz_n-32" value="" style="endArrow=ERzeroToMany;html=1;rounded=0;exitX=1;exitY=0.5;exitDx=0;exitDy=0;startArrow=ERmandOne;startFill=0;endFill=0;entryX=0;entryY=0.5;entryDx=0;entryDy=0;" edge="1" parent="1" source="xV1c-Uvib_8-AJtbmz_n-29" target="xV1c-Uvib_8-AJtbmz_n-30">
          <mxGeometry relative="1" as="geometry">
            <mxPoint x="260" y="299.5" as="sourcePoint" />
            <mxPoint x="360" y="299.5" as="targetPoint" />
          </mxGeometry>
        </mxCell>
        <mxCell id="xV1c-Uvib_8-AJtbmz_n-33" value="employee" style="edgeLabel;resizable=0;html=1;align=center;verticalAlign=middle;fontStyle=0" connectable="0" vertex="1" parent="xV1c-Uvib_8-AJtbmz_n-32">
          <mxGeometry relative="1" as="geometry" />
        </mxCell>
        <mxCell id="xV1c-Uvib_8-AJtbmz_n-34" value="" style="endArrow=ERmandOne;html=1;rounded=0;entryX=0;entryY=0.5;entryDx=0;entryDy=0;startArrow=ERzeroToMany;startFill=0;endFill=0;" edge="1" parent="1" target="xV1c-Uvib_8-AJtbmz_n-31">
          <mxGeometry relative="1" as="geometry">
            <mxPoint x="460" y="299.5" as="sourcePoint" />
            <mxPoint x="560" y="299.5" as="targetPoint" />
          </mxGeometry>
        </mxCell>
        <mxCell id="xV1c-Uvib_8-AJtbmz_n-35" value="belongs to" style="edgeLabel;resizable=0;html=1;align=center;verticalAlign=middle;fontStyle=0" connectable="0" vertex="1" parent="xV1c-Uvib_8-AJtbmz_n-34">
          <mxGeometry relative="1" as="geometry" />
        </mxCell>
        <mxCell id="xV1c-Uvib_8-AJtbmz_n-37" value="postcode" style="ellipse;whiteSpace=wrap;html=1;align=center;" vertex="1" parent="1">
          <mxGeometry x="180" y="160" width="60" height="40" as="geometry" />
        </mxCell>
        <mxCell id="xV1c-Uvib_8-AJtbmz_n-38" value="name" style="ellipse;whiteSpace=wrap;html=1;align=center;" vertex="1" parent="1">
          <mxGeometry x="120" y="190" width="60" height="40" as="geometry" />
        </mxCell>
        <mxCell id="xV1c-Uvib_8-AJtbmz_n-39" value="clinic id" style="ellipse;whiteSpace=wrap;html=1;align=center;fontStyle=4" vertex="1" parent="1">
          <mxGeometry x="60" y="220" width="70" height="40" as="geometry" />
        </mxCell>
        <mxCell id="xV1c-Uvib_8-AJtbmz_n-40" value="date of birth" style="ellipse;whiteSpace=wrap;html=1;align=center;" vertex="1" parent="1">
          <mxGeometry x="425" y="120" width="70" height="50" as="geometry" />
        </mxCell>
        <mxCell id="xV1c-Uvib_8-AJtbmz_n-41" value="occupation" style="ellipse;whiteSpace=wrap;html=1;align=center;" vertex="1" parent="1">
          <mxGeometry x="380" y="160" width="60" height="40" as="geometry" />
        </mxCell>
        <mxCell id="xV1c-Uvib_8-AJtbmz_n-42" value="name" style="ellipse;whiteSpace=wrap;html=1;align=center;" vertex="1" parent="1">
          <mxGeometry x="340" y="195" width="50" height="30" as="geometry" />
        </mxCell>
        <mxCell id="xV1c-Uvib_8-AJtbmz_n-43" value="employee number" style="ellipse;whiteSpace=wrap;html=1;align=center;fontStyle=4" vertex="1" parent="1">
          <mxGeometry x="280" y="220" width="70" height="40" as="geometry" />
        </mxCell>
        <mxCell id="xV1c-Uvib_8-AJtbmz_n-44" value="description" style="ellipse;whiteSpace=wrap;html=1;align=center;" vertex="1" parent="1">
          <mxGeometry x="640" y="180" width="100" height="40" as="geometry" />
        </mxCell>
        <mxCell id="xV1c-Uvib_8-AJtbmz_n-45" value="code" style="ellipse;whiteSpace=wrap;html=1;align=center;fontStyle=4" vertex="1" parent="1">
          <mxGeometry x="570" y="225" width="90" height="30" as="geometry" />
        </mxCell>
        <mxCell id="xV1c-Uvib_8-AJtbmz_n-46" value="" style="line;strokeWidth=2;direction=south;html=1;" vertex="1" parent="1">
          <mxGeometry x="450" y="170" width="10" height="110" as="geometry" />
        </mxCell>
        <mxCell id="xV1c-Uvib_8-AJtbmz_n-47" value="" style="line;strokeWidth=2;direction=south;html=1;" vertex="1" parent="1">
          <mxGeometry x="410" y="200" width="10" height="80" as="geometry" />
        </mxCell>
        <mxCell id="xV1c-Uvib_8-AJtbmz_n-48" value="" style="line;strokeWidth=2;direction=south;html=1;" vertex="1" parent="1">
          <mxGeometry x="360" y="225" width="10" height="55" as="geometry" />
        </mxCell>
        <mxCell id="xV1c-Uvib_8-AJtbmz_n-49" value="" style="line;strokeWidth=2;direction=south;html=1;" vertex="1" parent="1">
          <mxGeometry x="320" y="260" width="10" height="20" as="geometry" />
        </mxCell>
        <mxCell id="xV1c-Uvib_8-AJtbmz_n-50" value="" style="line;strokeWidth=2;direction=south;html=1;" vertex="1" parent="1">
          <mxGeometry x="670" y="220" width="10" height="60" as="geometry" />
        </mxCell>
        <mxCell id="xV1c-Uvib_8-AJtbmz_n-51" value="" style="line;strokeWidth=2;direction=south;html=1;" vertex="1" parent="1">
          <mxGeometry x="610" y="255" width="10" height="25" as="geometry" />
        </mxCell>
        <mxCell id="xV1c-Uvib_8-AJtbmz_n-52" value="" style="line;strokeWidth=2;direction=south;html=1;" vertex="1" parent="1">
          <mxGeometry x="205" y="200" width="10" height="80" as="geometry" />
        </mxCell>
        <mxCell id="xV1c-Uvib_8-AJtbmz_n-53" value="" style="line;strokeWidth=2;direction=south;html=1;" vertex="1" parent="1">
          <mxGeometry x="145" y="230" width="10" height="50" as="geometry" />
        </mxCell>
        <mxCell id="xV1c-Uvib_8-AJtbmz_n-54" value="" style="line;strokeWidth=2;direction=south;html=1;" vertex="1" parent="1">
          <mxGeometry x="90" y="260" width="10" height="20" as="geometry" />
        </mxCell>
      </root>
    </mxGraphModel>
  </diagram>
</mxfile>
